<svg xmlns="http://www.w3.org/2000/svg" xmlns:xlink="http://www.w3.org/1999/xlink" viewBox="0 0 500 342" xmlns:v="https://vecta.io/nano"><path d="M331.8 31.5c0-17.3-14-31.3-31.3-31.3h-53.8c-23.8 0-31.7 12.2-31.7 27l.1 6.7c0 7.1-.2 13.9 13.7 24.3l28.6 20c6.7 5.1 6.7 7.4 6.7 10.6v5.3c0 2.6-1.5 8.1-10.9 8.1H204c-11.2 0-17.4-6.2-17.4-17.4V66.4v-8.9-2.8c0-11.2.4-14.5 11.6-14.5h7.4c5.1 0 4.9-4.1 4.9-9.2s.2-9.2-4.9-9.2h-11.9c-17.3 0-25.6 11.1-25.6 28.4v7.3h0v31.8c0 17.3 14 31.3 31.3 31.3h53.8c23.8 0 31.7-12.2 31.7-27 0-1.4-.1-4.4-.1-6.7 0-7.1.2-13.9-13.7-24.3l-28.6-20c-6.7-5.1-6.7-7.4-6.7-10.6v-5.3c0-2.6 1.5-8.1 10.9-8.1H296c11.2 0 17.4 6.2 17.4 17.4v27.3h0v2.8c0 11.2-.4 14.5-11.6 14.5h-7.4c-5.1 0-4.9 4.1-4.9 9.2s-.2 9.2 4.9 9.2h11.9c17.3 0 25.6-11.1 25.6-28.4v-7.3h0V31.5h-.1z" fill="#0088c4"/><path d="M450.1 227.4l7.9-37.5h0c0 .1 0 .1 0 0h0c0 .1 0 .1 0 0h0l7.9 37.5h-15.8 0zm49.5 41.8c-.1-.7-21-104.4-21.1-105.1-1.3-7.1-1.7-7.1-5.8-7.1h-2.9-.3 0-22.9 0-.3-2.9c-4.1 0-4.5 0-5.8 7.1-.1.7-21 104.4-21.1 105.1-1.1 5.6.2 8.2 3 8.2h8.1.5.5 4.3c6 0 7.2 0 8.5-7.1.5-2.7 1.9-9.7 3.7-18.4H471l3.7 18.4c1.3 7.1 2.4 7.1 8.5 7.1h4.3.5.5 8.1c2.8 0 4.1-2.6 3-8.2h0zM384 196v2 1.6c0 8.5-4.3 12.8-12.8 12.8h-18v-24.7-6.1h5.6.6 10.3.1 1.5c8.5 0 12.8 4.3 12.8 12.8v1.6h-.1zm16.6 48c-1.3-4.7-3.7-9.3-6.9-13.5 8.8-6 14.1-16 14.1-26.8V198v-2-5.7c0-17.9-14.6-32.5-32.5-32.5h-5.7-.3-35.8c-3 0-4.2 1.7-4.2 4.3v93 7.9 9.3c0 4.3 1.3 4.3 3.8 4.3h7.6.5.5 7.6c2.5 0 3.8-.8 3.8-5V263v-7.9-18.8h7.8c8.8.1 14.7 4.9 17.3 13.7l5.6 19.6v.1c2 6.9 3.1 6.9 7.1 6.9h5.5.5.5 9c3 0 3.1-3.5 2.3-6l-8.1-26.6h0zm-243.3-86.3h-17.6c-2 0-3.6 1.6-3.6 3.6v6.3 51.7 18.6c0 12.3-4.1 14.5-12.6 14.5-4.6 0-7.5-.7-9.3-2.4-2.3-2.1-3.4-6-3.4-12.1v-18.2-52.1-6.3c0-2-1.6-3.6-3.6-3.6H89.8c-2 0-3.6 1.6-3.6 3.6v6.3 51.1V238c0 13.9 3.3 23.7 10.2 30.1 6.1 5.7 15 8.4 27.2 8.4 12.1 0 21-2.8 27.1-8.4 6.8-6.3 10.1-16.2 10.1-30.1v-19.9-50.5-6.3c.1-2-1.5-3.6-3.5-3.6h0zm64.3 44.6c0 8.6-3.7 13.4-10.3 13.4h-19.1V182h19.1c6.7 0 10.3 4.7 10.3 13.4v6.9h0zm13.2-37.1c-6-4.8-14.3-7.4-23.5-7.4h-40.2c-2 0-3.6 1.6-3.6 3.6V273c0 2 1.6 3.6 3.6 3.6h17.6c2 0 3.6-1.6 3.6-3.6v-33.2h19.1c9.1 0 17.5-2.6 23.5-7.4 7.8-6.2 11.7-15.6 11.7-27.9V193c-.1-12.2-4.1-21.6-11.8-27.8h0zm84.2 87.2h-41.2v-22.6h30.5c2 0 3.6-1.6 3.6-3.6v-17.1c0-2-1.6-3.6-3.6-3.6h-30.5v-23.7h39.6c2 0 3.6-1.6 3.6-3.6v-17.1c0-2-1.6-3.6-3.6-3.6h-43.2-17.6c-2 0-3.6 1.6-3.6 3.6V273c0 2 1.6 3.6 3.6 3.6h9.6H319c2 0 3.6-1.6 3.6-3.6v-17.1c0-1.9-1.6-3.5-3.6-3.5h0zM69.5 163.6c-5.8-4.3-13.7-6.6-22.9-6.6h-10c-28.9 0-33.3 18.1-33.3 28.9v2.5 3.8.2c0 6.9 0 14.7 14.3 25.4 0 0 .1 0 .1.1l26.9 18.8c5 3.8 5 4.9 5 7.3v1.9 3.1c0 1.6-.9 4.3-6.9 4.3H37c-4.7 0-8.5-.1-10.6-1.1-.8-.4-2.4-1.2-2.4-6.4v-1.3-3c-.1-4.2-2.8-5-5.4-5h-6.2-.5-.5-6.2c-2.6 0-5.4.8-5.4 5.2v8.4c0 8.8 3.5 16 10 20.9 5.8 4.3 13.7 6.6 22.9 6.6h10c28.9 0 33.3-18.1 33.3-28.9v-2.5-3.8-.4c0-6.9 0-14.7-14.3-25.4 0 0-.1 0-.1-.1l-26.9-18.8c-5-3.8-5-4.9-5-7.3v-2-3.1c0-1.6.9-4.3 6.9-4.3h5.7c4.7 0 8.5.1 10.6 1.1.8.4 2.4 1.2 2.4 6.4v1.3 3c0 4.2 3.5 5 6.1 5h5.5.5.5 6.9c2.6 0 4.6-.8 4.6-5.2v-8.4c.2-8.5-3.3-15.8-9.9-20.6h0z" fill="#fff"/><g fill="#0088c4"><use xlink:href="#B"/><path d="M67.8 313.7h4.4v27.9h-4.4v-27.9z"/><use xlink:href="#B" x="30.3"/><path d="M112.8 318h-6.3v23.6h-4.4V318h-6.4v-4.3h10.8 6.3v4.3z"/><use xlink:href="#C"/><path d="M158 313.7v27.9h-4.4v-18.3l-7.8 13.3-7.9-13.3v18.3h-4.3v-27.9h4.3l7.9 14.1 7.8-14.1h4.4zm17 18.4l-3.6-12.6-3.6 12.6h7.2 0zm1.3 4.2h-9.7l-1.5 5.3h-4.3l8.3-27.9h4.9 0l8.3 27.9H178l-1.7-5.3h0zm7-3.7l4.4-.8v1c0 2.9 1.1 4.8 5.2 4.8 3.1 0 4.5-1.4 4.5-3 0-2.5-2.2-3.3-6.6-5.8-5.2-3.2-6.7-4.8-6.7-8.5 0-5 4.3-6.7 8.3-6.7s8.5 1.9 8.5 7.7v.8l-4.4.8c0-2.8-.8-5-4.4-5-2.4 0-3.7.9-3.7 2.4 0 2 2.6 3 7.8 6.1 3.8 2.5 5.5 4.4 5.5 8.3 0 5.9-4.9 7.3-9 7.3s-9.5-1.7-9.5-7.7v-1.7h.1zm45.2-2h-6v6h-2v-6h-6v-2h6v-6h2v6h6v2zm13.2-16.9h4.4v27.9h-4.4v-27.9zm28.4 0v27.9h-4.3l-10.9-19.3v19.3h-4.4v-27.9h4.4l10.9 19.4v-19.4h4.3zm20.2 4.3h-6.4v23.6h-4.4V318h-6.3v-4.3h10.7 6.4v4.3zm16.8 19.4v4.2h-11.4-2.4v-27.9h4.4 9v4.3h-9v7.7h6.8v4.3h-6.8v7.4h9.4zm18.2 0v4.2h-10.5-3.8v-27.9h4.4v23.7h9.9zm3.1-23.7h4.4v27.9h-4.4v-27.9zm20.8 9.6v-.5c0-4.1-1.6-5-4-5s-4.1.9-4.1 5V333c0 3.8 1.6 4.5 4.1 4.5 2.4 0 4-.7 4-4.5v-2.2h-4v-4.3h8.4v4.3 2.2c0 6.7-3.2 8.7-8.4 8.7s-8.5-2.1-8.5-8.7v-10.8c0-6.7 3.3-8.7 8.5-8.7s8.4 2.1 8.4 8.7v.3l-4.4.8h0z"/><use xlink:href="#C" x="242.1"/><path d="M395.3 313.7v27.9h-4.4L380 322.3v19.3h-4.4v-27.9h4.4l10.9 19.4v-19.4h4.4zm20.1 4.3h-6.3v23.6h-4.4V318h-6.4v-4.3h10.8 6.3v4.3z"/><use xlink:href="#C" x="302.6"/><use xlink:href="#B" x="390.8"/></g><defs ><path id="B" d="M45.4 332.6l4.4-.8v1c0 2.9 1.1 4.8 5.2 4.8 3.1 0 4.5-1.4 4.5-3 0-2.5-2.2-3.3-6.6-5.8-5.2-3.2-6.7-4.8-6.7-8.5 0-5 4.3-6.7 8.3-6.7s8.5 1.9 8.5 7.7v.8l-4.4.8c0-2.8-.8-5-4.4-5-2.4 0-3.7.9-3.7 2.4 0 2 2.6 3 7.8 6.1 3.8 2.5 5.5 4.4 5.5 8.3 0 5.9-4.9 7.3-9 7.3-4 0-9.5-1.7-9.5-7.7v-1.7h.1z"/><path id="C" d="M129.7 337.4v4.2h-11.4-2.4v-27.9h4.4 9v4.3h-9v7.7h6.7v4.3h-6.7v7.4h9.4z"/></defs></svg>